<svg id="Ebene_1" data-name="Ebene 1" xmlns="http://www.w3.org/2000/svg" viewBox="0 0 128 128"><defs><style>.cls-1{fill:#7f7f7f;}</style></defs><path class="cls-1" d="M61,31.5v68.57H48.06V49.74L37.7,66.08h8.63v10h-15l-15.21,24H.69L48.06,28.93a8.44,8.44,0,0,1,5-3.35H61Z"/><path class="cls-1" d="M124.73,100.07H106.59L86.82,79.16c-1.14-1.21-3.24-3.08-3.24-3.08v-10s2.29.09,7.45-.29q10.39-.77,15.42-4.16t5-10.26q0-6.4-3.87-9.6t-11-3.2H82.24v61.5h-13V25.58h27.6a35.21,35.21,0,0,1,11,1.68,25.79,25.79,0,0,1,8.93,4.87,22.88,22.88,0,0,1,6,8,26.06,26.06,0,0,1,2.2,11,27.3,27.3,0,0,1-1.15,7.64A21.92,21.92,0,0,1,120,66.07a25.15,25.15,0,0,1-7.07,6.07,30.69,30.69,0,0,1-11,3.67Z"/></svg>