<svg id="Ebene_1" data-name="Ebene 1" xmlns="http://www.w3.org/2000/svg" viewBox="0 0 128 128"><defs><style>.cls-1{fill:#7f7f7f;}</style></defs><path class="cls-1" d="M61,25.58H53.08v.2l0-.19a7,7,0,0,0-1.51.5l1,2.28a4.84,4.84,0,0,1,.8-.29h5.09v7.53H61v-10ZM49.43,27.42l-.09.08h-.06a8.41,8.41,0,0,0-1.18,1.31h0v0h0v0h0l0,0h0l-4.1,6.17L46,36.52l4.11-6.17a5.76,5.76,0,0,1,.94-1l-1.63-1.9Zm-6.89,9.8-5.26,7.91,2.08,1.38,5.26-7.91-2.08-1.38Zm-6.65,10-.47.7h0v0l-4.78,7.18,2.08,1.39L38,48.59l-2.08-1.38Zm-6.65,10-.61.91h0l0,0h0l0,0h0l0,0h0l0,0h0L24,65.1l2.09,1.39,5.26-7.91L29.24,57.2Zm-6.65,10-3.37,5.07h0l0,0h0v0h0l0,0h0v0h0l0,0h0l0,0h0l-1.74,2.6,2.08,1.39,5.27-7.91-2.08-1.39Zm-6.65,10-2.33,3.5h0l0,0h0l0,0v0h0l0,0h0l0,0h0l0,0h0l0,0h0l-2.78,4.17,2.08,1.39L18,78.56l-2.08-1.39Zm-6.65,10-1.3,2H8v0h0v0l0,0h0L4,95.07,6.1,96.45l5.27-7.9L9.29,87.16Zm-6.65,10-.28.42h0l-1.67,2.5h6v-2.5H3.27l-.63-.42ZM15.4,96.6l-.61,1H9.18v2.5h7l1.34-2.12L15.4,96.6Zm6.42-10.13-5.08,8,2.11,1.34,3.39-5.34h0l.06-.11h0l1.62-2.55-2.12-1.34Zm6.43-10.14-5.09,8,2.11,1.34,3.41-5.38h0l.08-.12,1.6-2.53-2.11-1.34Zm13.24-2.75H32v2.5h9.5v-2.5Zm4.84-4.65h-2.5v7.15h2.5V68.93ZM35.87,64.3l-.28.44-2.43,3.84H46.33v-2.5H37.7l.28-.44L35.87,64.3ZM42.3,54.16l-5.09,8,2.11,1.34,2.07-3.27h0l3-4.75L42.3,54.16Zm8.26-13L46,48.4l-2.32,3.65,2.12,1.34,2-3.16h0l0-.06h0l0,0h0v0h0l0,0h0l0,0h0v0h0l0,0h0v0h0l0,0h0v0h0v5.18h2.5V41.13Zm0,16.29h-2.5v9.5h2.5v-9.5Zm0,12h-2.5v9.5h2.5v-9.5Zm0,12h-2.5v9.5h2.5v-9.5Zm0,12h-2.5v6.65h2.85v-2.5h-.35V93.42ZM61,97.57H53.41v2.5H61v-2.5Zm0-11.46h-2.5v9.5H61v-9.5Zm0-12h-2.5v9.5H61v-9.5Zm0-12h-2.5v9.5H61v-9.5Zm0-12h-2.5v9.5H61v-9.5Zm0-12h-2.5v9.5H61v-9.5Z"/><path class="cls-1" d="M96.85,25.58h-9.5v2.5h9.5v-2.5Zm-12,0h-9.5v2.5h9.5v-2.5Zm-12,0h-3.6v2.5h0v3.41h2.5V28.08h1.1v-2.5ZM71.75,34h-2.5v9.5h2.5V34Zm0,12h-2.5v9.5h2.5V46Zm0,12h-2.5v9.5h2.5V58Zm0,12h-2.5v9.5h2.5V70Zm0,12h-2.5v9.5h2.5V82Zm0,12h-2.5v6.08h3.42v-2.5h-.92V94Zm10.49,3.58H75.17v2.5h7.07v-2.5Zm0-11.94h-2.5v9.5h2.5v-9.5Zm0-12h-2.5v9.5h2.5v-9.5Zm0-12h-2.5v9.5h2.5v-9.5Zm0-12h-2.5v9.5h2.5v-9.5Zm.94-13.56H79.74V47.13h2.5V38.57h.94v-2.5Zm12,0h-9.5v2.5h9.5v-2.5Zm2.59,0-.09,2.5a17.1,17.1,0,0,1,9,2.52l1.4-2.07a19.61,19.61,0,0,0-10.34-2.95Zm12.68,5-1.84,1.68a9.52,9.52,0,0,1,1,1.29h0l0,0h0l0,0h0l0,0h0l0,0h0l0,0h0v0h0v0h0v0h0v0h0v0h0v0h.32v0h0v0h.09l0,0h0v0h0v0h0l0,0h0v0h0l0,0h0l0,0h0v0h0v0h0l0,0h0v0h0l0,.05h0l0,0h0v0h0l0,.05h0a.76.76,0,0,0,0,.11h0l0,.06h0l0,0h0v.06h0v0h0l0,.07h0c0,.16.1.32.14.49h0l0,.06h0l.06.25h0l0,.07h0a2.38,2.38,0,0,1,.05.26h0l0,.13h0v0h0l0,0h0v.07h0v.06h0v.06h0v.06h0v0h0v.05h0v0h0v0h0v0h0v0h0v0h0v0h0v0h0v0h0v0h0v0h0v0h0v0h0v0h0v0h0v0h0v0h0v0h0v0h0v0h0v0h0v0h0v0h0v.12l2.5,0v-.21c0-4.29-1.18-7.76-3.51-10.32Zm.8,13c-.07.4-.15.79-.25,1.17h0v0h0l-.06.22h0v0h0l0,0h0v0h0v0h0l0,.05h0v0h0v0h0v0h0v0h0v0h0v0h0v0h0v0h0v0h0v0h0l0,0h0v0h0v0h0v0h0v0h0v0h0l0,0h0v0h0v0h0v0h0v0h0v0h0v0h0l0,0h0v0h0v0h0v0h0v0h0v0h0v0h0v0h0v0h0v0h0v0h0v0h0v0h0v0h0v0h0v0h0v0h0v0H108.7v0h-.22v0h0v0h-.2v0h0l0,0h-.1l0,0h0l0,0h0v0h0v0h-.21l0,0h-.21l0,0h0v0h-1.2l0,0,1.36,2.1.25-.17a13.39,13.39,0,0,0,5.87-9.24l-2.47-.41ZM104,63l-.52.23h-.1l0,0h-.63l0,0h0l-.07,0h0l-.08,0h0l-.08,0h0c-.73.27-1.51.51-2.33.73h0l-.09,0h0l-.09,0h0l-.08,0h0l-.06,0h-1l-.06,0h-.06l-.07,0h0l-.12,0h0c-1.1.24-2.28.45-3.53.62l.34,2.47a35.35,35.35,0,0,0,9.86-2.62L104,63Zm-11.63,2.7h-.09L91,65.79c-3.54.26-5.72.3-6.75.3h-.7v2.5h.7c1,0,3.29,0,6.93-.31l1.43-.12-.23-2.49Zm-6.33,3.57h-2.5v6.84h0c.17.15,1,.93,1.93,1.77l1.72-1.81L86.08,75V69.24Zm3,8.7L87.3,79.66l6.52,6.9,1.82-1.72-6.53-6.9Zm8.25,8.72-1.82,1.72,6.53,6.9,1.81-1.72-6.52-6.9Zm8.24,8.72-1.82,1.72,2.66,2.81h0l0,0h0l0,0h0v0H112v-2.5h-4.33l-2.07-2.19ZM117,91.86l-1.82,1.71,3.76,4H114.5v2.5H124v-.78l-1.62-1.72h0l-.68-.73,0,0h0l0,0h0L117,91.86Zm-8.22-8.74L107,84.83l6.51,6.92L115.3,90l-1.2-1.27,0,0h0v0l-5.26-5.59ZM103.34,73c-.59.12-1.2.24-1.82.33l-4.66.75,3.23,3.44L105.26,83l1.82-1.71L102,75.86h0l0,0h.16c.59-.09,1.18-.2,1.75-.32L103.34,73Zm10.06-4.18c-.57.4-1.17.79-1.79,1.16a24,24,0,0,1-6,2.48l.67,2.41a27.42,27.42,0,0,0,6.14-2.47h0l0,0h0l0,0h0l0,0h.17l0,0H113c.33-.2.66-.4,1-.61h.14l.09-.06h0l.62-.42-1.44-2Zm6.92-8A21.24,21.24,0,0,1,118,64.54a20.08,20.08,0,0,1-2.8,2.9l1.62,1.91a22.62,22.62,0,0,0,2.59-2.59h0l0,0h0l0,0h0v0h0v0h.13v0h0v0h0v0h0v0h0v0H120v0h0l0,0h0a23.09,23.09,0,0,0,2.56-4.13l-2.25-1.08Zm4.59-10.58-2.49.06c0,.26,0,.53,0,.8A24.94,24.94,0,0,1,121.38,58c-.07.25-.15.49-.23.74l2.36.8c0-.12.09-.24.13-.37h0v0h0l0,0h0v0h0a27.3,27.3,0,0,0,1.15-7.64h0v0h0c0-.23,0-.46,0-.69ZM122,38.69l-2.21,1.18c.23.41.44.84.64,1.27A22.19,22.19,0,0,1,122.27,48l2.48-.27h0v0h0v0h-.06v0h-.11v0h0v0h0v0h0v0h0v0h0v0h0v0h0v0h0v0h0v0h0v0h0v0h0v0h0v0h0v0h0v0h0l0-.07h0v0h0v0h0l0-.11h0A22.82,22.82,0,0,0,123,40.61h0v0h0v0h0l0,0h0v0h0v0h0v0h0v0h-.09v0h0v0h0v0h0c-.11-.24-.22-.48-.34-.71h0v0h0v0h0v0h0l0,0h0l-.25-.48Zm-8.13-8.64-1.32,2.12A21,21,0,0,1,115.14,34,20,20,0,0,1,118.67,38l2.06-1.41a22,22,0,0,0-2.51-3.07h0l-.08-.08h0l0,0h0l0,0h0l0,0h0l0,0h0l0,0h0l0,0h0l0,0h0v0h0v0h0v0h0v0h0l0,0h0l0,0h0l0,0h-.9v0h-1.44l0,0h-.1l0,0h0l0,0h0l0,0h0l0,0h0l0,0h0l0,0h0l0,0h0c-.32-.22-.65-.44-1-.64Zm-11.22-4-.39,2.47a32.49,32.49,0,0,1,4.77,1.13,26.85,26.85,0,0,1,3.55,1.44l1.11-2.24-.31-.15h-.31l-.06,0h0a29.06,29.06,0,0,0-2.92-1.15h-.72a33.41,33.41,0,0,0-4.39-1h0l-.29,0Zm-5.83-.45v2.5c1.06,0,2.11.05,3.13.14l.22-2.49-.77-.06H96.85Z"/><rect class="cls-1" x="43.83" y="67.08" width="2.5" height="4.5"/><rect class="cls-1" x="83.57" y="67.31" width="2.5" height="4.5"/></svg>