<svg id="Ebene_1" data-name="Ebene 1" xmlns="http://www.w3.org/2000/svg" viewBox="0 0 1000 1000"><defs><style>.cls-1,.cls-2,.cls-3{fill:none;stroke:#000;}.cls-1,.cls-2{stroke-linejoin:bevel;}.cls-1{stroke-width:12.58px;}.cls-2{stroke-width:12.58px;}.cls-3{stroke-miterlimit:10;stroke-width:10.93px;}</style></defs><path d="M411.53,532.86V916.77L339.38,875.1V593.32l-58,58,48.3,27.9v56L246,686.84,160.83,772,74.24,722,339.38,476.8c11.31-9.42,28.1-2.53,28.1-2.53L381,482.1l30.51,17.61Z"/><path d="M902.21,737.5,800.66,796.15,690,743c-6.41-3.06-18.16-6.72-18.16-6.72v-56s12.82-6.91,41.68-25.71q58.25-37.92,86.32-73.11t28.06-73.68q0-35.82-21.65-41.23t-61.73,17.74l-80.17,46.3V874.86l-72.69,42v-417l154.46-89.21q32.6-18.83,61.47-26.14t50-1.6q21.1,5.75,33.4,25.36t12.3,54.38q0,20.85-6.41,46.48T875.49,562.6q-15,27.89-39.55,56.79t-61.47,56.08Z"/><path d="M53.78,284.2l441,254.68V980l-441-254.68V284.2m0-12.5a12.51,12.51,0,0,0-12.5,12.5V725.32a12.49,12.49,0,0,0,6.25,10.82l441,254.68A12.5,12.5,0,0,0,507.26,980V538.88A12.5,12.5,0,0,0,501,528.06L60,273.38a12.47,12.47,0,0,0-6.25-1.68Z"/><path d="M948.25,284.2V725.32L507.26,980V538.88l441-254.68m0-12.5a12.47,12.47,0,0,0-6.25,1.68L501,528.06a12.5,12.5,0,0,0-6.24,10.82V980a12.5,12.5,0,0,0,18.74,10.82l441-254.68a12.49,12.49,0,0,0,6.25-10.82V284.2a12.51,12.51,0,0,0-12.5-12.5Z"/><line class="cls-1" x1="501.01" y1="24.15" x2="53.63" y2="278.76"/><line class="cls-2" x1="948.11" y1="278.76" x2="501.01" y2="24.15"/><path d="M501,17.9a5,5,0,1,0,5,5,5,5,0,0,0-5-5Z"/><path class="cls-3" d="M386.07,245a23.6,23.6,0,0,0-1.44-7.63c-7.78-21.75-46.39-38.26-92.87-38.26s-85.08,16.51-92.87,38.26a23.58,23.58,0,0,0-1.43,7.63,3.85,3.85,0,0,0,0,.48c0,.66,0,1.33.09,2,1.34,15.68,18.5,29.34,43.84,37.22a180.69,180.69,0,0,0,100.79,0c25.33-7.88,42.5-21.54,43.83-37.22a18.62,18.62,0,0,0,.09-2C386.08,245.31,386.08,245.15,386.07,245Z"/><path class="cls-3" d="M386.08,249.29v62.15c0,25.61-42.22,46.36-94.32,46.36s-94.32-20.75-94.32-46.36V249.29a3.93,3.93,0,0,1,0-.48c0-.45,0-.9.07-1.36,1.34,15.68,18.5,29.34,43.84,37.22a180.69,180.69,0,0,0,100.79,0c25.33-7.88,42.5-21.54,43.83-37.22.05.46.07.91.08,1.36C386.08,249,386.08,249.13,386.08,249.29Z"/><path class="cls-3" d="M806.93,245.11a23.6,23.6,0,0,0-1.44-7.63c-7.78-21.75-46.4-38.26-92.87-38.26s-85.09,16.51-92.87,38.26a23.6,23.6,0,0,0-1.44,7.63c0,.16,0,.31,0,.48a18.62,18.62,0,0,0,.09,2c1.33,15.68,18.5,29.34,43.83,37.22a180.69,180.69,0,0,0,100.79,0c25.34-7.88,42.5-21.54,43.84-37.22.06-.65.09-1.32.09-2C806.94,245.42,806.94,245.27,806.93,245.11Z"/><path class="cls-3" d="M806.94,249.41v62.14c0,25.62-42.23,46.37-94.32,46.37s-94.32-20.75-94.32-46.37V249.41c0-.16,0-.31,0-.48,0-.46,0-.9.08-1.36,1.33,15.68,18.5,29.34,43.83,37.22a180.69,180.69,0,0,0,100.79,0c25.34-7.88,42.5-21.54,43.84-37.22,0,.46.06.9.08,1.36C806.94,249.1,806.94,249.25,806.94,249.41Z"/><path class="cls-3" d="M595.8,120.15a23.55,23.55,0,0,0-1.44-7.63C586.58,90.77,548,74.26,501.49,74.26s-85.08,16.51-92.87,38.26a23.53,23.53,0,0,0-1.43,7.63,3.7,3.7,0,0,0,0,.47c0,.66,0,1.33.09,2,1.34,15.68,18.5,29.34,43.84,37.22A171.46,171.46,0,0,0,501.49,167a171.53,171.53,0,0,0,50.4-7.17c25.33-7.88,42.5-21.54,43.84-37.22.06-.65.08-1.32.08-2C595.81,120.46,595.81,120.31,595.8,120.15Z"/><path class="cls-3" d="M595.81,124.45v62.14c0,25.61-42.22,46.37-94.32,46.37s-94.32-20.76-94.32-46.37V124.45a3.85,3.85,0,0,1,0-.48c0-.46,0-.91.07-1.37,1.34,15.68,18.5,29.34,43.84,37.22A171.46,171.46,0,0,0,501.49,167a171.53,171.53,0,0,0,50.4-7.17c25.33-7.88,42.5-21.54,43.84-37.22,0,.46.06.91.07,1.37C595.81,124.13,595.81,124.29,595.81,124.45Z"/><path class="cls-3" d="M595.8,358.83a23.55,23.55,0,0,0-1.44-7.63c-7.78-21.75-46.39-38.26-92.87-38.26s-85.08,16.51-92.87,38.26a23.53,23.53,0,0,0-1.43,7.63,3.7,3.7,0,0,0,0,.47c0,.66,0,1.33.09,2,1.34,15.68,18.5,29.34,43.84,37.22a180.69,180.69,0,0,0,100.79,0c25.33-7.88,42.5-21.54,43.84-37.22.06-.65.08-1.32.08-2C595.81,359.14,595.81,359,595.8,358.83Z"/><path class="cls-3" d="M595.81,363.13v62.14c0,25.61-42.22,46.37-94.32,46.37s-94.32-20.76-94.32-46.37V363.13a3.85,3.85,0,0,1,0-.48c0-.46,0-.91.07-1.37,1.34,15.68,18.5,29.34,43.84,37.22a180.69,180.69,0,0,0,100.79,0c25.33-7.88,42.5-21.54,43.84-37.22,0,.46.06.91.07,1.37C595.81,362.81,595.81,363,595.81,363.13Z"/></svg>